<svg overflow="visible" style="display: block;" viewBox="0 0 44.4653 17.5" fill="none" xmlns="http://www.w3.org/2000/svg">
<g id="Group">
<path id="Vector" d="M39.3731 17.1442L35.2817 12.0669V17.1442H31.6571V0.726387H35.2817V10.8513L39.1804 6.34477H44.1614L39.3509 11.3257L44.4653 17.1442H39.3731ZM28.7664 7.2787C29.5076 8.08662 29.7226 8.78336 29.7226 10.2806V17.1442H26.0981V11.6889C26.0981 10.4956 26.0758 10.4288 25.8609 9.96929C25.6459 9.47268 25.0529 9.13172 24.4303 9.13172C23.2147 9.13172 22.5254 9.93964 22.5254 11.3479V17.1368H18.9009V6.35218H22.5254V7.7086C22.6885 7.49365 22.859 7.32317 22.9998 7.1601C23.6669 6.47078 24.623 6.08535 25.809 6.08535C27.0468 6.08535 28.0474 6.49301 28.7664 7.2787ZM18.5006 2.20881C18.5006 0.978399 19.479 0 20.7094 0C21.9399 0 22.9183 0.985811 22.9183 2.20881C22.9183 3.43181 21.9324 4.41762 20.7094 4.41762C19.479 4.41762 18.5006 3.43922 18.5006 2.20881ZM13.327 0.726387H16.9515V17.1442H13.327V0.726387ZM5.86298 14.2164C4.55104 14.2164 3.50593 13.1194 3.50593 11.763C3.50593 10.4066 4.55104 9.28738 5.86298 9.28738C7.15269 9.28738 8.1978 10.3844 8.1978 11.763C8.1978 13.1194 7.15269 14.2164 5.86298 14.2164ZM6.81914 5.9964C5.79627 5.9964 4.74375 6.35218 4.07666 6.92291C3.98031 7.01927 3.81724 7.18234 3.62452 7.39729V0.726387H0V17.1442H3.62452V15.9509C4.15078 16.6624 4.46209 16.907 5.17366 17.1887C5.67027 17.4036 6.21876 17.5 6.76726 17.5C9.70246 17.5 11.9632 14.9947 11.9632 11.7111C11.9632 8.47205 9.72469 5.9964 6.81914 5.9964Z" fill="var(--fill-0, #0C0C09)"/>
<path id="Vector_2" d="M42.8865 4.80308C42.8865 4.4473 43.1681 4.17306 43.5239 4.17306C43.8797 4.17306 44.1613 4.45472 44.1613 4.80308C44.1613 5.15887 43.8797 5.43311 43.5239 5.43311C43.1681 5.44053 42.8865 5.15887 42.8865 4.80308ZM42.9902 4.80308C42.9902 5.09957 43.2274 5.32935 43.5239 5.32935C43.813 5.32935 44.0576 5.09957 44.0576 4.80308C44.0576 4.5066 43.813 4.27683 43.5239 4.27683C43.2348 4.27683 42.9902 4.5066 42.9902 4.80308ZM43.813 5.16628H43.6944L43.5165 4.84015H43.3831V5.16628H43.2793V4.45472H43.5758C43.7018 4.45472 43.8204 4.49178 43.8204 4.64002C43.8204 4.78085 43.724 4.83274 43.6277 4.83274L43.813 5.16628ZM43.3831 4.55849V4.73638H43.4943C43.5906 4.73638 43.724 4.7512 43.724 4.65484C43.724 4.5659 43.6499 4.55849 43.561 4.55849H43.3831Z" fill="var(--fill-0, #0C0C09)"/>
</g>
</svg>
