<svg overflow="visible" style="display: block;" viewBox="0 0 53.5057 16.3333" fill="none" xmlns="http://www.w3.org/2000/svg">
<g id="gorevel" clip-path="url(#clip0_0_89)">
<path id="Vector" d="M51.3754 13.5554C51.1772 13.3454 51.1178 13.059 51.1772 12.7058L53.5057 0.0095461H52.9806L47.6003 0L47.194 2.46289H50.0279L48.0561 13.1736C48.0065 13.4123 48.0065 13.6509 48.0165 13.8704H38.7818C38.3656 13.8704 38.0584 13.7655 37.8603 13.5554C37.6621 13.3454 37.6027 13.059 37.6621 12.7058L37.8801 11.5412H45.7375L46.4905 7.35045C46.5698 6.91137 46.5599 6.51041 46.4708 6.1286C46.3716 5.74674 46.1933 5.41262 45.9357 5.12624C45.6781 4.83986 45.3511 4.61075 44.9448 4.44847C44.5386 4.28619 44.0828 4.20027 43.5675 4.20027H32.807L32.7078 4.40074H32.6682L28.3085 13.2881H28.0707L27.3276 6.96865H28.5067L29.5867 4.38165H23.5326L24.0578 6.96865H24.0677L25.3756 13.8704H15.1302C14.7141 13.8704 14.4069 13.7655 14.2088 13.5554C14.0106 13.3454 13.9511 13.059 14.0106 12.7058L14.2286 11.5412H22.086L22.839 7.35045C22.9183 6.91137 22.9084 6.51041 22.8192 6.1286C22.7201 5.74674 22.5417 5.41262 22.2841 5.12624C22.0265 4.83986 21.6996 4.61075 21.2933 4.44847C20.8871 4.28619 20.4313 4.20027 19.916 4.20027H16.0517C16.0517 4.20027 16.022 4.20027 16.0121 4.20027H8.91761C8.46185 4.20027 8.0556 4.28619 7.689 4.44847C7.32235 4.61075 6.98549 4.80167 6.69813 5.02123C6.39095 5.25034 6.11351 5.52718 5.85589 5.83263H5.6181L5.50911 4.52484V4.41983H2.36812L1.67453 7.00683H2.97254L2.18977 11.4362L1.82316 13.1831C1.78353 13.3836 1.77361 13.5745 1.77361 13.7655L0.683685 13.7368L0 16.3238H8.08534L8.52127 13.88H6.86659L5.89555 13.8609C5.55865 13.8323 5.29112 13.7464 5.12268 13.5649C4.92451 13.355 4.86506 13.0686 4.92451 12.7154L5.3803 10.2429L5.8163 7.94234C5.97479 7.72279 6.17299 7.53186 6.40086 7.36003C6.57924 7.21686 6.7972 7.09272 7.06473 6.96865C7.33226 6.84451 7.62953 6.77771 7.9763 6.77771H12.1379C12.0685 6.96865 12.0091 7.15958 11.9695 7.36003L10.9092 13.1831C10.83 13.6222 10.8399 14.0232 10.9489 14.405C11.0578 14.7868 11.2362 15.121 11.4938 15.4073C11.7514 15.6937 12.0784 15.9229 12.4847 16.0851C12.8909 16.2474 13.3467 16.3333 13.8619 16.3333H29.4975L34.8877 6.61545H35.8786C35.7696 6.85409 35.6903 7.1023 35.6408 7.36003L34.5806 13.1831C34.5013 13.6222 34.5112 14.0232 34.6202 14.405C34.7292 14.7868 34.9075 15.121 35.1652 15.4073C35.4228 15.6937 35.7498 15.9229 36.156 16.0851C36.5623 16.2474 37.018 16.3333 37.5333 16.3333H50.4539V16.2856C50.6323 16.3142 50.8305 16.3333 51.0385 16.3333H52.614L53.0499 13.8895H52.3267C51.9105 13.8895 51.6033 13.7845 51.4052 13.5745L51.3754 13.5554ZM16.458 6.65364H18.6379C19.054 6.65364 19.3611 6.75862 19.5593 6.96865C19.7575 7.17867 19.817 7.46501 19.7575 7.81826L19.5197 9.09739H14.6843L14.9221 7.81826C14.9816 7.46501 15.16 7.17867 15.4275 6.96865C15.705 6.75862 16.0517 6.65364 16.4679 6.65364H16.458ZM42.2993 6.65364C42.7154 6.65364 43.0226 6.75862 43.2208 6.96865C43.4189 7.17867 43.4784 7.46501 43.4189 7.81826L43.1811 9.09739H38.3458L38.5836 7.81826C38.643 7.46501 38.8214 7.17867 39.0889 6.96865C39.3664 6.75862 39.7131 6.65364 40.1293 6.65364H42.3092H42.2993Z" fill="var(--fill-0, #0C0C09)"/>
</g>
<defs>
<clipPath id="clip0_0_89">
<rect width="53.5057" height="16.3333" fill="white"/>
</clipPath>
</defs>
</svg>
