<svg overflow="visible" style="display: block;" viewBox="0 0 90.5172 35" fill="none" xmlns="http://www.w3.org/2000/svg">
<g id="Frame" clip-path="url(#clip0_0_63)">
<g id="Group">
<path id="Vector" d="M31.6335 18.9006H26.2273V8.4778H24.1086V20.8244H24.7174H26.2273H31.6335V18.9006Z" fill="var(--fill-0, #0C0C09)"/>
<path id="Vector_2" d="M35.7247 17.7318L38.1356 11.6437H40.3516C39.1097 14.7608 37.8921 17.8779 36.6501 20.9706C36.1631 22.2856 35.3351 23.1379 34.7019 23.4789C34.0201 23.8198 33.2164 23.9172 33.2164 23.9172H32.9973C32.3641 23.9659 31.8284 23.8442 31.4874 23.7468V21.7986C31.6335 21.8473 31.8527 21.896 32.1206 21.9203C32.2667 21.9203 32.6076 21.969 32.9973 21.9203C33.7035 21.7986 34.1662 21.3846 34.3123 21.2385C34.9455 20.6784 35.1403 19.9722 35.2133 19.7043H34.5071C34.3123 19.7043 34.1175 19.5825 34.0444 19.4121L30.5377 11.595H32.7538L35.3351 17.683C35.4081 17.8535 35.6517 17.8535 35.7247 17.683V17.7318Z" fill="var(--fill-0, #0C0C09)"/>
<path id="Vector_3" d="M47.9251 11.9356C47.4137 11.6191 46.7562 11.4729 45.9526 11.4729C45.1489 11.4729 45.0759 11.4729 44.4671 11.7408C43.5173 12.1305 43.0059 12.8367 42.7868 13.1776H42.7381V11.6678H40.7655V20.8485H42.8842V15.5641C42.8842 15.004 42.9572 14.5657 43.1277 14.2247C43.2982 13.8838 43.5417 13.6646 43.8826 13.5185C44.2236 13.3724 44.6375 13.3237 45.1489 13.3237C45.9769 13.3237 46.537 13.4942 46.8292 13.8351C47.1215 14.176 47.2676 14.7361 47.2676 15.5154V20.8485H49.2645V15.0771C49.2645 14.3952 49.2888 13.7864 49.0697 13.2263C48.8261 12.6906 48.4608 12.2522 47.9494 11.9356H47.9251Z" fill="var(--fill-0, #0C0C09)"/>
<path id="Vector_4" d="M62.0008 18.7788C62.6583 16.4653 63.3889 13.9084 64.0464 11.6436H66.8225L68.7464 18.7544C68.7951 18.9006 69.0142 18.9006 69.0386 18.7544C69.4769 16.441 69.9396 13.9327 70.378 11.6436H72.6427L70.451 20.5078C70.4023 20.7026 70.2318 20.8244 70.037 20.8244H67.894C67.6992 20.8244 67.5531 20.7026 67.5044 20.5322C66.8225 18.1943 66.1407 15.8565 65.4588 13.5187H65.2883C64.6065 15.8565 63.9246 18.1943 63.2428 20.5322C63.1941 20.7026 63.0236 20.8244 62.8531 20.8244H60.7101C60.5153 20.8244 60.3448 20.7026 60.2961 20.5078L58.2505 12.2037L55.3283 15.9783L58.6158 20.8244H56.1075L53.5993 16.855H52.5034V20.8244H50.3848V8.45345H52.5034V15.1016H53.5993L56.1563 11.6192H60.4422L61.6842 18.7301C61.7086 18.8762 61.9277 18.9006 61.9764 18.7301L62.0008 18.7788Z" fill="var(--fill-0, #0C0C09)"/>
<path id="Vector_5" d="M75.0779 13.9572C75.4188 13.4945 76.052 13.2753 76.9774 13.2753C77.9027 13.2753 77.9271 13.3483 78.268 13.4945C78.6089 13.6406 78.8768 13.8841 79.0229 14.225C79.1691 14.5173 79.2178 14.8825 79.1934 15.3452H74.5665C74.6152 14.7851 74.7857 14.3224 75.0535 13.9572H75.0779ZM79.2665 11.9359C78.6333 11.6193 77.9027 11.4489 77.0504 11.4489C76.1981 11.4489 75.3214 11.6437 74.6639 12.0577C74.0064 12.4717 73.4706 13.0074 73.1053 13.738C72.7401 14.4442 72.5452 15.2965 72.5452 16.2463C72.5452 17.196 72.7157 18.024 73.0323 18.7545C73.3489 19.4851 73.8603 20.0209 74.5178 20.4348C75.1753 20.8245 76.0276 21.0437 77.0504 21.0437C78.0732 21.0437 78.6333 20.9219 79.2421 20.654C79.8509 20.4105 80.338 20.0452 80.6789 19.5825C81.0198 19.1198 81.1903 18.5597 81.1903 17.9509V17.7805H79.0716V17.9022C79.0716 18.2919 78.9255 18.5841 78.6089 18.8032C78.2924 19.0224 77.781 19.1442 77.0504 19.1442C76.3198 19.1442 75.8815 19.0468 75.5406 18.852C75.1996 18.6571 74.9318 18.3406 74.7857 17.9509C74.6639 17.61 74.5908 17.2204 74.5665 16.782H81.1903C81.2146 16.6359 81.239 16.4411 81.2633 16.2219C81.2633 16.0027 81.2877 15.7592 81.2877 15.4913C81.2877 14.6634 81.1172 13.9572 80.7519 13.3483C80.3867 12.7395 79.8996 12.3012 79.2665 11.9603V11.9359Z" fill="var(--fill-0, #0C0C09)"/>
<path id="Vector_6" d="M84.2343 8.4778H82.1157V20.8487H84.2343V8.4778Z" fill="var(--fill-0, #0C0C09)"/>
<path id="Vector_7" d="M87.668 8.4778H85.5493V20.8487H87.668V8.4778Z" fill="var(--fill-0, #0C0C09)"/>
<path id="Vector_8" d="M89.1534 9.23272H88.983V8.62392H88.6907V8.4778H89.4456V8.62392H89.1534V9.23272ZM89.7622 9.23272H89.6161V8.4778H89.8353L90.0788 9.03791L90.3223 8.4778H90.5172V9.23272H90.371V8.72133L90.1519 9.18402H89.9814L89.7866 8.72133V9.20837L89.7622 9.23272Z" fill="var(--fill-0, #0C0C09)"/>
<path id="Vector_9" d="M75.0048 23.576C73.8846 23.576 73.2271 24.3796 73.2271 25.378C73.2271 26.3765 73.8603 27.1801 75.0048 27.1801C75.9789 27.1801 76.5634 26.2791 76.5634 25.2806C76.5634 24.5988 76.1007 23.5516 75.0048 23.5516V23.576ZM75.0048 26.3278C74.3717 26.3278 74.0795 25.9138 74.0795 25.378C74.0795 24.8666 74.3717 24.4283 75.0048 24.4283C75.638 24.4283 75.9302 24.8423 75.9302 25.378C75.9302 25.8894 75.6136 26.3278 75.0048 26.3278Z" fill="var(--fill-0, #0C0C09)"/>
<path id="Vector_10" d="M71.8878 22.5047V25.3783L69.7204 22.5047H68.8194V27.0829H69.7935V24.1607L71.5225 26.4011C71.9852 26.1819 72.4722 25.9627 72.7888 25.8653H72.8619V22.4804H71.8878V22.5047Z" fill="var(--fill-0, #0C0C09)"/>
<path id="Vector_11" d="M88.1551 23.5761H87.0836L86.4504 24.5746L85.7198 23.5761H84.6727L85.9147 25.3295L84.8188 27.1072H85.8903L86.4504 26.1331L87.0836 27.1072H88.1551L86.9862 25.3295L88.1551 23.5761Z" fill="var(--fill-0, #0C0C09)"/>
<path id="Vector_12" d="M79.8997 23.5761L78.9987 25.6948L78.0976 23.5761H77.0748L78.536 26.7906L78.0733 27.8865H78.9987L80.8738 23.5761H79.8997Z" fill="var(--fill-0, #0C0C09)"/>
<path id="Vector_13" d="M76.1007 27.1072H76.8313V23.5761H76.1007L76.0033 24.1849V26.4497L76.1007 27.1072Z" fill="var(--fill-0, #0C0C09)"/>
<path id="Vector_14" d="M82.5296 23.576C81.4094 23.576 80.7519 24.3796 80.7519 25.378C80.7519 26.3765 81.3851 27.1801 82.5296 27.1801C83.5037 27.1801 84.0882 26.2791 84.0882 25.2806C84.0882 24.2822 83.6255 23.5516 82.5296 23.5516V23.576ZM82.5296 26.3278C81.8965 26.3278 81.6043 25.9138 81.6043 25.378C81.6043 24.8423 81.8965 24.4283 82.5296 24.4283C83.1141 24.4283 83.455 24.8423 83.455 25.378C83.455 25.9138 83.1385 26.3278 82.5296 26.3278Z" fill="var(--fill-0, #0C0C09)"/>
<path id="Vector_15" d="M83.6256 27.1072H84.3562V23.5761H83.6256L83.5282 24.1849V26.4497L83.6256 27.1072Z" fill="var(--fill-0, #0C0C09)"/>
<path id="Vector_16" d="M64.0951 24.4772V25.7678C64.2412 25.6217 64.3873 25.5487 64.5578 25.5487C64.7283 25.5487 64.9231 25.6217 65.0692 25.7678C65.2153 25.914 65.264 26.1088 65.264 26.3279C65.264 26.5471 65.1909 26.7419 65.0692 26.9124C64.9231 27.0585 64.7526 27.1316 64.5578 27.1316C64.363 27.1316 64.2169 27.0585 64.0951 26.9367V27.0829H63.7542V24.4772H64.0951ZM64.9231 26.3523C64.9231 26.2062 64.8744 26.0844 64.8013 26.0114C64.7283 25.914 64.6308 25.8652 64.5091 25.8652C64.3873 25.8652 64.2656 25.914 64.1925 26.0114C64.1194 26.1088 64.0707 26.2062 64.0707 26.3523C64.0707 26.4984 64.1194 26.6202 64.1925 26.6932C64.2656 26.7906 64.363 26.8393 64.5091 26.8393C64.6552 26.8393 64.7283 26.7906 64.8013 26.6932C64.8744 26.5958 64.9231 26.4984 64.9231 26.3523Z" fill="var(--fill-0, #0C0C09)"/>
<path id="Vector_17" d="M66.092 26.815L65.4101 25.5974H65.8241L66.2868 26.4741L66.7251 25.5974H67.1148L65.9215 27.9109H65.5319L66.092 26.815Z" fill="var(--fill-0, #0C0C09)"/>
</g>
<path id="Vector_18" d="M8.08494 13.908L1.53419 9.15927L2.55698 7.74684L7.71966 11.4971L8.93727 7.72248L10.5932 8.25823L8.83986 13.6644C8.7668 13.8592 8.57199 14.0054 8.35282 14.0054C8.13365 14.0054 8.158 13.981 8.06059 13.908H8.08494ZM9.76524 14.3706C9.86265 14.4924 10.0088 14.5655 10.1792 14.5655H15.8777V12.8121H11.9082L13.8564 6.7484L12.2005 6.21265L9.71654 13.908C9.66784 14.0541 9.71654 14.2245 9.7896 14.3463L9.76524 14.3706ZM18.2642 15.4665H10.1792C10.0088 15.4665 9.86265 15.5396 9.76524 15.6613C9.66784 15.7831 9.64348 15.9535 9.69219 16.0997L11.4455 21.5058L13.1015 20.9701L11.8839 17.1955H18.2642V15.4665ZM8.37717 16.0509C8.27976 16.0509 8.18235 16.0509 8.08494 16.1484L3.48237 19.509L4.50516 20.9214L7.71966 18.5836L9.69219 24.6473L11.3481 24.1115L8.83986 16.4162C8.7668 16.2214 8.57199 16.0753 8.35282 16.0753L8.37717 16.0509ZM7.76836 15.0282C7.76836 14.8577 7.69531 14.7116 7.57354 14.6142L2.97097 11.2779L1.94818 12.6903L5.16267 15.0282L0 18.7784L1.02279 20.1908L7.57354 15.4421C7.69531 15.3447 7.76836 15.1986 7.76836 15.0282Z" fill="var(--fill-0, #0C0C09)"/>
<path id="Vector_19" d="M72.8374 27.1069V26.352V26.1085C72.3017 26.2546 71.425 26.693 70.8405 27.0339C70.8405 27.0339 70.7918 27.0582 70.7918 27.0826H72.8618L72.8374 27.1069Z" fill="var(--fill-0, #0C0C09)"/>
</g>
<defs>
<clipPath id="clip0_0_63">
<rect width="90.5172" height="35" fill="white"/>
</clipPath>
</defs>
</svg>
