<svg overflow="visible" style="display: block;" viewBox="0 0 76.3331 27.7965" fill="none" xmlns="http://www.w3.org/2000/svg">
<g id="Group">
<path id="Vector" fill-rule="evenodd" clip-rule="evenodd" d="M16.6784 14.8733C16.6784 14.3069 16.5588 13.7879 16.3197 13.3178C16.0938 12.8459 15.7673 12.4291 15.3631 12.0968C14.9568 11.7621 14.4908 11.5313 13.965 11.4032V0H12.2192V11.403C11.6932 11.5385 11.2265 11.7704 10.8201 12.0966C10.4161 12.4292 10.0896 12.8458 9.86339 13.3176C9.63282 13.7877 9.51339 14.3065 9.50491 14.8731V18.4749H10.6527V20.7607C10.6612 20.9671 10.7322 21.1392 10.8676 21.2747C11.0031 21.4105 11.1711 21.4785 11.3703 21.4785C11.5775 21.4785 11.7485 21.4102 11.8838 21.2749C12.0194 21.1392 12.0913 20.9673 12.0996 20.7607V18.4751H14.0956V20.7609C14.0956 20.9673 14.1639 21.1394 14.2993 21.2749C14.4348 21.4107 14.6068 21.4788 14.813 21.4788C15.0131 21.4788 15.18 21.4105 15.3158 21.2751C15.4511 21.1394 15.523 20.9675 15.5304 20.7609V18.4751H16.6784V14.8733Z" fill="var(--fill-0, #0C0C09)"/>
<path id="Vector_2" fill-rule="evenodd" clip-rule="evenodd" d="M15.8414 1.86621V4.51094C17.3481 4.92585 18.6877 5.62436 19.859 6.605C21.0227 7.58648 21.9391 8.77076 22.6087 10.1591C23.2784 11.5389 23.6212 13.0469 23.6371 14.6817C23.6286 16.1496 23.3541 17.518 22.8124 18.7867C22.2621 20.0543 21.5085 21.1714 20.552 22.1372C19.5879 23.1019 18.4681 23.8562 17.1931 24.3984C15.9256 24.9405 14.5628 25.2201 13.1038 25.2362C11.6374 25.2278 10.2698 24.949 9.00327 24.3984C7.73585 23.8562 6.61967 23.1019 5.65558 22.1372C4.69064 21.1714 3.93782 20.0541 3.39521 18.7867C2.85345 17.5182 2.5743 16.1496 2.55839 14.6817C2.57409 13.0469 2.91688 11.5351 3.58676 10.147C4.25642 8.76715 5.17745 7.58648 6.34858 6.605C7.51248 5.62436 8.84736 4.92585 10.3538 4.51094V1.86621C8.87155 2.19351 7.50039 2.74397 6.24124 3.518C5.00007 4.29035 3.89354 5.26045 2.96545 6.38991C2.03233 7.53048 1.30773 8.80279 0.789091 10.2068C0.270879 11.6111 0.00848485 13.1029 0 14.6817C0.00848485 16.5011 0.351061 18.1995 1.02836 19.7794C1.70545 21.3593 2.64239 22.7512 3.83791 23.9552C5.04191 25.1518 6.43279 26.0896 8.01033 26.7673C9.58894 27.4376 11.2861 27.7806 13.1038 27.7965C14.9215 27.7881 16.6186 27.4459 18.1972 26.7673C19.7748 26.0896 21.1618 25.1518 22.3576 23.9552C23.5531 22.7512 24.49 21.3593 25.1671 19.7794C25.8453 18.1995 26.1872 16.5011 26.1955 14.6817C26.187 13.1029 25.9246 11.6108 25.4064 10.2068C24.8962 8.80258 24.1752 7.53048 23.2421 6.38991C22.3098 5.25697 21.2142 4.29967 19.9542 3.518C18.7034 2.74397 17.3324 2.19351 15.8414 1.86621Z" fill="var(--fill-0, #0C0C09)"/>
<path id="Vector_3" d="M42.6617 17.2248L42.4941 19.6212H33.9142V19.1687C33.97 19.191 34.065 19.2022 34.1991 19.2022C34.4784 19.2022 34.7298 19.1129 34.9532 18.9341C35.1765 18.7553 35.2883 18.5264 35.2883 18.247V9.5331C35.2883 9.1534 35.1152 8.90183 34.7688 8.77901C34.6348 8.73446 34.2716 8.68398 33.6796 8.62819V8.19249H42.3265L42.4271 8.32655L42.1924 10.2872H41.7065V9.41579C41.7065 9.22595 41.6562 9.08616 41.5557 8.99686C41.4216 8.87383 41.187 8.81252 40.8518 8.81252H36.8635V13.4041L36.9641 13.4376H40.2988C40.5447 13.4376 40.7065 13.1975 40.7848 12.717C40.8071 12.5607 40.8183 12.3204 40.8183 11.9965H41.254V15.3647H40.8183C40.8183 15.0741 40.8071 14.862 40.7848 14.7279C40.7178 14.3035 40.5557 14.0912 40.2988 14.0912H36.9641L36.8635 14.2252V18.9676H41.0529C41.5221 18.9676 41.8628 18.677 42.0751 18.0962C42.1422 17.9064 42.2037 17.6158 42.2595 17.2248H42.6617ZM55.1461 8.19249V8.62819C54.9569 8.60571 54.765 8.62572 54.5846 8.68673C54.4002 8.74825 54.2747 8.85728 54.2076 9.01361L49.8507 19.7217H49.0631L44.9072 9.08064C44.7731 8.87955 44.614 8.75398 44.4297 8.70349C44.2451 8.65322 44.0135 8.62819 43.7341 8.62819V8.19249H48.0744V8.62819C48.0298 8.61695 47.9626 8.61143 47.8733 8.61143H47.6722C47.3816 8.61143 47.1304 8.64219 46.9181 8.70349C46.706 8.76501 46.622 8.85728 46.6667 8.9801L49.8842 17.5265L52.9843 9.08064C53.0514 8.86852 52.839 8.72873 52.3475 8.6617C52.1912 8.65046 51.9341 8.63943 51.5767 8.62819V8.19249H55.1461ZM66.9434 18.4816C66.9434 18.8503 66.4351 19.1799 65.4184 19.4703C64.5023 19.7272 63.6031 19.8558 62.7205 19.8558C61.0112 19.8558 59.531 19.3475 58.2797 18.3308C56.9279 17.2248 56.252 15.8172 56.252 14.1079C56.252 13.203 56.4196 12.3484 56.7548 11.544C57.1792 10.5163 57.8328 9.69516 58.7154 9.08064C59.7879 8.33207 61.1285 7.95789 62.7372 7.95789C63.4521 7.95789 64.1336 8.01367 64.7817 8.12546C65.4297 8.23725 66.1503 8.41607 66.9434 8.6617L66.4742 10.7229H66.0217L65.9547 9.63364C65.0723 8.96334 64.0388 8.62819 62.8545 8.62819C61.3576 8.62819 60.1566 9.13092 59.2517 10.1364C58.4138 11.0636 57.9948 12.2198 57.9948 13.6052C57.9948 15.1021 58.4696 16.3589 59.4192 17.3756C60.4247 18.4594 61.743 19.0011 63.374 19.0011C64.1674 19.0011 64.8377 18.9118 65.3849 18.733C65.8541 18.5319 66.3289 18.3253 66.8093 18.113C66.8651 18.113 66.9044 18.1352 66.9266 18.18C66.9379 18.2023 66.9434 18.303 66.9434 18.4816ZM73.9648 13.2365C74.6351 13.3596 75.1796 13.661 75.5986 14.1414C76.0177 14.6219 76.2271 15.2027 76.2271 15.8842C76.2271 17.1018 75.7021 18.0739 74.6519 18.8C73.7022 19.4591 72.5852 19.7887 71.3004 19.7887C70.8311 19.7887 70.3814 19.7442 69.9513 19.6547C69.5213 19.5654 69.0268 19.4256 68.4683 19.2357C68.5129 18.9451 68.5466 18.5989 68.5689 18.1968C68.5911 17.7946 68.6024 17.4092 68.6024 17.0405H69.0548C69.0548 17.722 69.3117 18.2358 69.8257 18.5822C70.2614 18.8728 70.8424 19.0179 71.5685 19.0179C72.5404 19.0179 73.3142 18.7918 73.8893 18.3391C74.4648 17.8866 74.7524 17.2863 74.7524 16.5378C74.7524 16.0463 74.6128 15.6161 74.3335 15.2474C74.0206 14.834 73.5906 14.5884 73.0431 14.5101L70.1273 14.0912C69.5353 14.0019 69.0856 13.7085 68.7782 13.2113C68.4711 12.7143 68.3175 12.125 68.3175 11.4435C68.3175 10.3935 68.7587 9.52186 69.6414 8.82928C70.468 8.18125 71.4232 7.85734 72.5069 7.85734C72.9984 7.85734 73.4928 7.92161 73.9898 8.04995C74.5006 8.18342 74.9973 8.36584 75.473 8.59467C75.2942 9.26498 75.1714 9.89625 75.1043 10.4883H74.7859C74.7859 10.1419 74.7301 9.77343 74.6184 9.38228C74.3746 9.08216 74.0611 8.84627 73.7052 8.69522C73.342 8.53889 72.9426 8.46061 72.5069 8.46061C71.7696 8.46061 71.116 8.71749 70.5463 9.23146C69.9765 9.74543 69.6916 10.3262 69.6916 10.9742C69.6916 11.3877 69.7616 11.7534 69.9012 12.0718C70.0408 12.3904 70.2837 12.583 70.6301 12.65L73.9648 13.2365Z" fill="var(--fill-0, #0C0C09)" stroke="var(--stroke-0, #0C0C09)" stroke-width="0.212121"/>
</g>
</svg>
