<svg overflow="visible" style="display: block;" viewBox="0 0 122.565 21.9722" fill="none" xmlns="http://www.w3.org/2000/svg">
<g id="Group">
<path id="Vector" d="M17.4352 11.5371C16.5278 11.5371 16.0093 11.9908 15.9445 13.676C15.9445 14.713 15.3612 14.9722 14.8426 14.9722C13.9352 14.9722 13.6112 14.0648 13.6112 11.8611V8.94447C13.6112 7.19447 13.676 5.89817 14.8426 5.89817C15.4908 5.89817 15.9445 6.35188 15.9445 7.12965C15.9445 8.36114 16.463 8.81484 17.4352 8.81484C18.2778 8.81484 18.8612 8.29632 18.8612 7.12965C18.8612 5.96299 18.1482 3.56484 14.7778 3.56484C11.213 3.56484 10.5649 5.5741 10.5 8.29632H1.5556C0.453744 8.29632 4.06901e-05 9.00928 4.06901e-05 9.72225C4.06901e-05 10.5648 0.453744 11.213 1.5556 11.213H10.5V11.6019C10.5 14.713 10.8889 17.2408 14.7778 17.2408C18.213 17.2408 18.8612 14.5185 18.8612 13.2222C18.926 12.1204 18.3426 11.5371 17.4352 11.5371Z" fill="var(--fill-0, #0C0C09)"/>
<path id="Vector_2" d="M21.0648 1.75004C21.0648 0.518559 21.6481 4.06901e-05 22.5555 4.06901e-05C23.4629 4.06901e-05 24.0463 0.583374 24.0463 1.75004V5.25004H24.1111C24.5648 4.14819 25.7315 3.56486 26.8333 3.56486C28.4537 3.56486 29.6203 4.60189 29.6203 6.8056V15.4908C29.6203 16.7223 29.037 17.2408 28.1296 17.2408C27.2222 17.2408 26.6389 16.6574 26.6389 15.4908V7.51856C26.6389 6.54634 26.1203 6.15745 25.537 6.15745C24.6296 6.15745 23.9815 6.87041 23.9815 8.49078V15.4908C23.9815 16.7223 23.3981 17.2408 22.4907 17.2408C21.5833 17.2408 21 16.6574 21 15.4908V1.75004H21.0648Z" fill="var(--fill-0, #0C0C09)"/>
<path id="Vector_3" d="M40.4446 14.1297C40.4446 14.9722 40.639 15.6852 40.639 16.0741C40.639 16.8519 40.1205 17.2408 39.1483 17.2408C38.3705 17.2408 37.5927 16.8519 37.5927 15.5556H37.5279C37.0094 16.7222 35.9075 17.176 34.8705 17.176C33.1205 17.176 31.8242 16.1389 31.8242 13.676C31.8242 11.7315 32.4075 10.5648 33.8983 9.78706L36.4908 8.42595C37.139 8.10188 37.3983 7.58336 37.3983 7.06484C37.3983 6.35188 37.0094 5.76854 36.2964 5.76854C35.2594 5.76854 35.0001 6.28706 34.8705 7.3241C34.8057 7.90743 34.2223 8.23151 33.4445 8.23151C32.7964 8.23151 31.889 7.90743 31.889 7.00003C31.889 4.73151 33.7038 3.56484 35.9723 3.56484C39.8612 3.56484 40.3149 5.31484 40.3149 7.38891V14.1297H40.4446ZM37.4631 10.2408L36.426 10.9537C35.1297 11.8611 34.8705 12.3148 34.8705 13.4167C34.8705 14.3889 35.2594 14.9722 35.9075 14.9722C36.8797 14.9722 37.4631 13.9352 37.4631 12.5741V10.2408Z" fill="var(--fill-0, #0C0C09)"/>
<path id="Vector_4" d="M42.9075 5.18519C42.9075 4.21297 43.2964 3.62964 44.2686 3.62964C45.2409 3.62964 45.6298 4.27779 45.6298 5.18519V6.41668H45.6946C46.1483 4.79631 46.8612 3.62964 47.8983 3.62964C48.676 3.62964 49.3242 4.21297 49.3242 5.50927C49.3242 6.41668 48.8705 7.25927 47.5094 7.25927C46.602 7.25927 45.8242 7.90742 45.8242 9.00927V15.4259C45.8242 16.6574 45.2409 17.1759 44.3335 17.1759C43.426 17.1759 42.8427 16.5926 42.8427 15.4259V5.18519H42.9075Z" fill="var(--fill-0, #0C0C09)"/>
<path id="Vector_5" d="M50.3611 8.49075C50.3611 6.02779 51.0093 3.62964 53.4722 3.62964C54.5741 3.62964 55.7407 4.27779 56.1944 5.37964H56.2593C56.2593 4.14816 56.7778 3.62964 57.6852 3.62964C58.5278 3.62964 59.1111 4.21297 59.1111 5.37964V17.6945C59.1111 20.6759 57.6204 21.9722 54.7037 21.9722C52.5 21.9722 50.8796 21.2593 50.8796 19.5741C50.8796 18.7315 51.5278 18.2778 52.3704 18.2778C53.0185 18.2778 53.4722 18.6667 53.6667 19.1204C53.9259 19.7037 54.3148 19.8982 54.7037 19.8982C56 19.8982 56.2593 19.0556 56.2593 17.3056V15.4907H56.1944C55.5463 16.7222 54.8333 16.9815 53.6018 16.9815C50.9444 16.9815 50.4907 14.5833 50.4907 11.9259V8.49075H50.3611ZM53.4722 10.9537C53.4722 13.8056 53.7315 14.5833 54.7037 14.5833C55.4167 14.5833 56.1296 14.0648 56.1296 11.4074V9.1389C56.1296 6.54631 55.287 5.96297 54.7037 5.96297C53.8611 5.96297 53.4074 6.74075 53.4074 8.81482V10.9537H53.4722Z" fill="var(--fill-0, #0C0C09)"/>
<path id="Vector_6" d="M61.4445 9.07408C61.4445 5.76853 61.8982 3.62964 65.9167 3.62964C68.963 3.62964 70 5.31482 70 8.75001C70 9.91668 69.8704 10.8241 68.3796 10.8241H64.5556V12.1204C64.5556 13.6759 64.6852 14.9074 65.8519 14.9074C66.5 14.9074 66.9537 14.2593 66.9537 13.5463C67.0185 12.25 67.6019 11.9907 68.3796 11.9907C69.2222 11.9907 69.8704 12.25 69.8704 13.4167C69.8704 15.75 68.25 17.1759 65.8519 17.1759C61.8333 17.1759 61.3796 15.037 61.3796 11.7315V9.07408H61.4445ZM67.0185 8.75001V7.64816C67.0185 6.67593 66.6945 5.89816 65.7222 5.89816C64.75 5.89816 64.4259 6.67593 64.4259 7.64816V8.75001H67.0185Z" fill="var(--fill-0, #0C0C09)"/>
<path id="Vector_7" d="M72.139 5.37964C72.139 4.14816 72.7223 3.62964 73.6297 3.62964C74.5371 3.62964 75.1205 4.21297 75.1205 5.37964H75.1853C75.7038 4.27779 76.7408 3.62964 77.7779 3.62964C80.4353 3.62964 80.889 6.02779 80.889 8.68519V12.1852C80.889 14.8426 80.4353 17.2408 77.7779 17.2408C76.676 17.2408 75.7038 16.787 75.1853 15.75H75.1205V19.4445C75.1205 20.6759 74.5371 21.1945 73.6297 21.1945C72.7223 21.1945 72.139 20.6111 72.139 19.4445V5.37964ZM75.1205 11.7963C75.1205 13.6759 75.4445 14.9722 76.6112 14.9722C77.713 14.9722 77.8427 13.7408 77.8427 11.537V9.72223C77.8427 6.87038 77.5834 6.0926 76.6112 6.0926C75.8982 6.0926 75.1853 6.61112 75.1853 9.26853V11.7963H75.1205Z" fill="var(--fill-0, #0C0C09)"/>
<path id="Vector_8" d="M82.7685 8.68519C82.7685 5.89816 83.6759 3.62964 87.1759 3.62964C90.6759 3.62964 91.5834 5.89816 91.5834 8.68519V12.25C91.5834 15.037 90.6759 17.3056 87.1759 17.3056C83.6759 17.3056 82.7685 15.037 82.7685 12.25V8.68519ZM85.8797 11.9908C85.8797 14.3889 86.2685 14.9722 87.2408 14.9722C88.213 14.9722 88.6019 14.3889 88.6019 11.9908V8.87964C88.6019 6.54631 88.1482 5.96297 87.2408 5.96297C86.3982 5.96297 85.8797 6.54631 85.8797 8.87964V11.9908Z" fill="var(--fill-0, #0C0C09)"/>
<path id="Vector_9" d="M93.9815 5.37964C93.9815 4.14816 94.5648 3.62964 95.4722 3.62964C96.3797 3.62964 96.963 4.21297 96.963 5.37964V15.4907C96.963 16.7222 96.3797 17.2408 95.4722 17.2408C94.5648 17.2408 93.9815 16.6574 93.9815 15.4907V5.37964Z" fill="var(--fill-0, #0C0C09)"/>
<path id="Vector_10" d="M120.815 8.3612H116.407V4.99083C116.407 4.01861 115.824 3.30564 114.981 3.30564C114.139 3.30564 113.556 4.01861 113.556 4.99083V8.29638H108.176V6.80564C108.176 4.60194 107.009 3.5649 105.389 3.5649C104.287 3.5649 103.12 4.14824 102.667 5.25009H102.602C102.602 4.14824 102.019 3.5649 101.111 3.5649C100.204 3.5649 99.6204 4.14824 99.6204 5.3149V15.426C99.6204 16.6575 100.204 17.176 101.111 17.176C102.019 17.176 102.602 16.5927 102.602 15.426V8.49083C102.602 6.87046 103.185 6.1575 104.157 6.1575C104.806 6.1575 105.259 6.54638 105.259 7.51861V15.4908C105.259 16.7223 105.843 17.2408 106.75 17.2408C107.657 17.2408 108.241 16.6575 108.241 15.4908V11.2131H113.62V15.6205C113.62 16.5927 114.204 17.3056 115.046 17.3056C115.889 17.3056 116.472 16.5927 116.472 15.6205V11.2131H120.88C121.917 11.2131 122.565 10.6297 122.565 9.78712C122.5 8.94453 121.852 8.3612 120.815 8.3612Z" fill="var(--fill-0, #0C0C09)"/>
</g>
</svg>
