<svg overflow="visible" style="display: block;" viewBox="0 0 42.9006 18.6667" fill="none" xmlns="http://www.w3.org/2000/svg">
<g id="Frame" clip-path="url(#clip0_0_16)">
<path id="Vector" d="M19.4398 0V18.6655H14.1135V9.57302L9.95929 16.5591L9.7199 16.9617L9.48054 16.5591L8.1799 14.3713L5.32632 9.57302V18.6655H0V0H5.32632L9.7199 7.59891L14.1135 0H19.4398ZM33.2421 13.4102C33.2421 11.5719 34.0814 9.96974 35.7336 8.97205C34.5792 8.10543 33.8718 6.87041 33.8718 5.29537C33.8718 2.41332 35.7585 0.547837 38.4903 0.00118004H30.7917V8.53401L24.9336 0.00118004H20.6721V18.6667H25.9983V10.1338L31.8576 18.6667H37.6202C34.7419 17.9724 33.2443 16.0585 33.2443 13.4114L33.2421 13.4102ZM40.7215 14.5437C41.9348 14.5437 42.9006 13.5755 42.9006 12.3618C42.9006 11.1481 41.9335 10.1799 40.7215 10.1799C39.5091 10.1799 38.5424 11.1469 38.5424 12.3618C38.5424 13.5767 39.5091 14.5437 40.7215 14.5437ZM40.7215 7.71225C41.9348 7.71225 42.9006 6.74528 42.9006 5.53034C42.9006 4.31541 41.9335 3.34844 40.7215 3.34844C39.5091 3.34844 38.5424 4.31658 38.5424 5.53034C38.5424 6.74407 39.5091 7.71225 40.7215 7.71225Z" fill="var(--fill-0, #0C0C09)"/>
</g>
<defs>
<clipPath id="clip0_0_16">
<rect width="42.9006" height="18.6667" fill="white"/>
</clipPath>
</defs>
</svg>
