<svg overflow="visible" style="display: block;" viewBox="0 0 63.875 23.3333" fill="none" xmlns="http://www.w3.org/2000/svg">
<g id="Frame" clip-path="url(#clip0_0_37)">
<path id="Vector" d="M48.0248 7.51904H47.4601V9.96012H48.0248V7.51904Z" fill="var(--fill-0, #0C0C09)"/>
<path id="Vector_2" d="M48.626 9.31249C48.626 9.53103 48.6864 9.6967 48.8066 9.81736C48.927 9.93038 49.1003 9.9907 49.326 9.9907C49.4083 9.9907 49.4911 9.98323 49.574 9.96063C49.6495 9.93803 49.7169 9.90793 49.7697 9.87021L49.6268 9.486C49.5667 9.53121 49.4911 9.55381 49.4086 9.55381C49.3336 9.55381 49.2808 9.53121 49.2359 9.486C49.198 9.44079 49.1753 9.38048 49.1753 9.3052V8.54424H49.6416V8.12995H49.1753V7.67029H48.6342V8.12995H48.3478V8.54424H48.6342V9.31266L48.626 9.31249Z" fill="var(--fill-0, #0C0C09)"/>
<path id="Vector_3" d="M50.1307 7.97896L49.9805 8.52884H50.3267L50.5297 8.024C50.5673 7.93358 50.5895 7.8583 50.6049 7.81309C50.6198 7.76791 50.6198 7.72271 50.6198 7.66986C50.6198 7.57197 50.5898 7.48905 50.5221 7.42871C50.4623 7.36839 50.3792 7.33832 50.2815 7.33832C50.1838 7.33832 50.1009 7.36839 50.0403 7.42871C49.9802 7.48905 49.9426 7.57197 49.9426 7.66986C49.9426 7.74513 49.958 7.80545 49.9951 7.85813C50.0254 7.91098 50.0706 7.94854 50.1307 7.97115V7.97896Z" fill="var(--fill-0, #0C0C09)"/>
<path id="Vector_4" d="M51.5755 9.56847C51.4629 9.56847 51.3425 9.55336 51.2299 9.51562C51.1173 9.4779 51.0114 9.44034 50.9286 9.38749L50.7486 9.77934C50.8385 9.83969 50.9516 9.8849 51.1018 9.92243C51.2521 9.96018 51.4031 9.97528 51.5606 9.97528C51.7412 9.97528 51.8996 9.95268 52.0346 9.9C52.1702 9.84733 52.2676 9.77952 52.3356 9.68913C52.403 9.59871 52.4409 9.49319 52.4409 9.3802C52.4409 9.24457 52.403 9.13905 52.3356 9.05613C52.2676 8.9732 52.1778 8.928 52.0795 8.89792C51.9818 8.86785 51.8543 8.84525 51.7036 8.815C51.5679 8.7924 51.4705 8.7698 51.4031 8.74719C51.3425 8.72459 51.3051 8.68688 51.3051 8.6267C51.3051 8.57385 51.3349 8.53632 51.3956 8.49858C51.4556 8.4685 51.5385 8.45337 51.6583 8.45337C51.8543 8.45337 52.0343 8.49858 52.2003 8.59646L52.3805 8.21225C52.2977 8.1594 52.1851 8.12183 52.0571 8.09176C51.929 8.06169 51.7937 8.04655 51.6583 8.04655C51.4778 8.04655 51.3273 8.06915 51.192 8.12183C51.0563 8.17453 50.9586 8.24232 50.8913 8.33273C50.8233 8.42312 50.7857 8.52865 50.7857 8.64913C50.7857 8.79222 50.8233 8.89775 50.8988 8.97303C50.9738 9.04831 51.0566 9.10116 51.1543 9.13123C51.2523 9.16133 51.3801 9.19157 51.5309 9.21415C51.6583 9.22929 51.7561 9.25189 51.8167 9.2745C51.8768 9.2971 51.9144 9.33481 51.9144 9.38749C51.9144 9.50051 51.8013 9.56082 51.5682 9.56082L51.5758 9.56829L51.5755 9.56847Z" fill="var(--fill-0, #0C0C09)"/>
<path id="Vector_5" d="M53.8245 9.95264H54.3662V8.53625H54.8325V8.12196H54.3513V8.03901C54.3513 7.85821 54.4341 7.76782 54.5992 7.76782C54.6823 7.76782 54.7576 7.79042 54.8177 7.8356L54.9603 7.44375C54.9151 7.41368 54.8477 7.38343 54.7797 7.36847C54.7124 7.35336 54.6295 7.34587 54.5467 7.34587C54.3137 7.34587 54.1404 7.40621 54.0124 7.53417C53.8849 7.6623 53.8245 7.82796 53.8245 8.04651V8.12943H53.5387V8.54389H53.8245V9.96028V9.95264Z" fill="var(--fill-0, #0C0C09)"/>
<path id="Vector_6" d="M55.4576 8.5365C55.5554 8.5064 55.6531 8.49129 55.7508 8.49129C55.8937 8.49129 55.999 8.52136 56.0742 8.58917C56.1498 8.64949 56.1795 8.74737 56.1795 8.86039H55.7508C55.4801 8.86039 55.2771 8.91307 55.1415 9.0111C55.0134 9.10898 54.9455 9.24475 54.9455 9.42559C54.9455 9.53858 54.9758 9.62899 55.0283 9.71938C55.0811 9.8023 55.1639 9.87012 55.2689 9.92279C55.3748 9.97547 55.5029 9.99807 55.6455 9.99807C55.924 9.99807 56.1119 9.90768 56.2171 9.73434V9.968H56.7211V8.89811C56.7211 8.61942 56.6459 8.40837 56.4881 8.27274C56.3297 8.13715 56.1121 8.06934 55.8181 8.06934C55.6679 8.06934 55.5177 8.09194 55.3748 8.12968C55.2319 8.16739 55.1114 8.22757 55.0061 8.29535L55.2016 8.67209C55.2689 8.61942 55.3518 8.57421 55.4495 8.54397L55.4576 8.5365ZM56.1795 9.36524C56.1498 9.44816 56.0967 9.50833 56.0293 9.55354C55.9538 9.59872 55.8788 9.62132 55.7811 9.62132C55.6831 9.62132 55.6079 9.59872 55.5554 9.56101C55.5029 9.52329 55.4725 9.46312 55.4725 9.39531C55.4725 9.25225 55.5851 9.17679 55.8036 9.17679H56.1722V9.36506L56.1795 9.36524Z" fill="var(--fill-0, #0C0C09)"/>
<path id="Vector_7" d="M58.3682 8.90572C58.2705 8.87565 58.1424 8.85305 57.9922 8.8228C57.8569 8.8002 57.7592 8.7776 57.6918 8.75499C57.6311 8.73239 57.5935 8.69467 57.5935 8.6345C57.5935 8.58183 57.6239 8.54412 57.6839 8.50637C57.7443 8.4763 57.8269 8.4612 57.9473 8.4612C58.1427 8.4612 58.3236 8.50637 58.4889 8.60443L58.6695 8.22022C58.5866 8.16755 58.4741 8.1298 58.346 8.09973C58.218 8.06966 58.0826 8.05452 57.947 8.05452C57.7665 8.05452 57.6163 8.07713 57.4809 8.1298C57.3529 8.18251 57.2476 8.25029 57.1796 8.34071C57.1123 8.4311 57.0746 8.53662 57.0746 8.65711C57.0746 8.80037 57.1123 8.90572 57.1878 8.98118C57.2625 9.05646 57.3453 9.10931 57.4433 9.13938C57.541 9.16945 57.6691 9.1997 57.8193 9.2223C57.9473 9.23744 58.045 9.26004 58.1051 9.28265C58.1655 9.30522 58.2031 9.34296 58.2031 9.39564C58.2031 9.50863 58.0902 9.56897 57.8569 9.56897C57.7443 9.56897 57.6239 9.55384 57.5113 9.5163C57.3905 9.4862 57.2931 9.44102 57.21 9.38817L57.0294 9.77985C57.1199 9.84017 57.233 9.88537 57.3832 9.92312C57.5337 9.96083 57.6839 9.97579 57.8423 9.97579C58.0226 9.97579 58.1804 9.95319 58.316 9.90051C58.4516 9.84766 58.549 9.78002 58.617 9.68946C58.6844 9.59905 58.7223 9.49352 58.7223 9.38053C58.7223 9.2449 58.6844 9.13938 58.617 9.05663C58.549 8.97368 58.4589 8.9285 58.3609 8.8984L58.3685 8.9059L58.3682 8.90572Z" fill="var(--fill-0, #0C0C09)"/>
<path id="Vector_8" d="M60.1212 9.48574C60.0611 9.53095 59.9859 9.55353 59.903 9.55353C59.8281 9.55353 59.7756 9.53095 59.7304 9.48574C59.6927 9.44054 59.67 9.38022 59.67 9.30494V8.54398H60.1361V8.12967H59.67V7.67H59.1281V8.12967H58.8422V8.54398H59.1281V9.31241C59.1281 9.53095 59.1887 9.69662 59.3086 9.81728C59.4294 9.93027 59.6023 9.99059 59.8281 9.99059C59.9106 9.99059 59.9935 9.98312 60.0763 9.96052C60.1515 9.93792 60.2192 9.90785 60.2717 9.87013L60.1288 9.48592H60.1215L60.1212 9.48574Z" fill="var(--fill-0, #0C0C09)"/>
<path id="Vector_9" d="M61.8743 8.16704C61.7241 8.08412 61.5657 8.04655 61.3779 8.04655C61.1898 8.04655 61.0165 8.08429 60.8663 8.16704C60.7161 8.24996 60.5954 8.36298 60.5052 8.51354C60.4221 8.66424 60.3772 8.82247 60.3772 9.01074C60.3772 9.19904 60.4221 9.36488 60.5125 9.50797C60.6029 9.65121 60.7234 9.7717 60.8885 9.85445C61.0544 9.9374 61.2347 9.97511 61.4453 9.97511C61.7839 9.97511 62.0397 9.87722 62.2202 9.67364L61.9344 9.35724C61.867 9.41756 61.7988 9.46277 61.7235 9.49284C61.6486 9.52291 61.5657 9.53805 61.4677 9.53805C61.3251 9.53805 61.2044 9.50798 61.1142 9.44016C61.0162 9.37235 60.9564 9.28196 60.9337 9.1613H62.348C62.348 9.07091 62.3556 9.01824 62.3556 9.01057C62.3556 8.81465 62.3104 8.64149 62.2275 8.49822C62.145 8.34749 62.0245 8.2345 61.8743 8.15922V8.16669V8.16704ZM60.9191 8.85254C60.934 8.73205 60.9865 8.634 61.0693 8.56621C61.1522 8.4984 61.2572 8.46069 61.3779 8.46069C61.4984 8.46069 61.6037 8.4984 61.6865 8.56621C61.7687 8.634 61.8218 8.73188 61.8367 8.85254H60.9112H60.9191Z" fill="var(--fill-0, #0C0C09)"/>
<path id="Vector_10" d="M63.4915 8.12183C63.3783 8.16704 63.2955 8.23485 63.2281 8.32524V8.07662H62.709V9.95268H63.2503V9.07123C63.2503 8.89793 63.2955 8.76994 63.3859 8.67955C63.476 8.58914 63.5968 8.55143 63.7546 8.55143H63.875V8.04655C63.7321 8.04655 63.6041 8.06915 63.4915 8.11436V8.12183Z" fill="var(--fill-0, #0C0C09)"/>
<path id="Vector_11" d="M29.4123 11.1731H35.1525L35.5361 10.0204H29.7964L29.4123 11.1731Z" fill="var(--fill-0, #0C0C09)"/>
<path id="Vector_12" d="M29.7958 13.4714H34.3849L34.7684 12.3187H29.0282L28.6447 13.4714L28.2612 14.6165L27.8773 15.7692H33.6248L34.0011 14.6165H29.4123L29.7958 13.4714Z" fill="var(--fill-0, #0C0C09)"/>
<path id="Vector_13" d="M40.508 12.3186H35.9195L35.5359 13.4713H40.1247L39.7488 14.6165H35.1518L34.7685 15.7691L34.0009 18.0671H35.1518L35.9195 15.7691H40.5082L41.6592 12.3184H40.5082L40.508 12.3186Z" fill="var(--fill-0, #0C0C09)"/>
<path id="Vector_14" d="M49.6941 12.3187L48.9346 14.6167H45.4889L46.249 12.3187H45.1053L43.9544 15.7694H49.6941L50.8451 12.3187H49.6941Z" fill="var(--fill-0, #0C0C09)"/>
<path id="Vector_15" d="M51.9957 12.3187L51.6122 13.4714L50.8448 15.7694H55.4339L55.05 16.922H50.4613L50.0777 18.0747H55.8174L57.736 12.3187H51.9957ZM55.8174 14.6165H52.3717L52.7558 13.4637H56.201L55.8174 14.6165Z" fill="var(--fill-0, #0C0C09)"/>
<path id="Vector_16" d="M44.7209 10.0204H43.57L42.6821 12.7027L41.6593 15.7691H42.8102L43.9538 12.3184L44.7209 10.0204Z" fill="var(--fill-0, #0C0C09)"/>
<path id="Vector_17" d="M15.0778 20.1818L18.5377 12.3945H12.9518L13.0043 12.3029C13.9099 10.7217 14.3973 9.0404 14.3764 7.56879C14.3661 6.83928 14.2344 6.1762 13.985 5.59791C13.7287 5.00402 13.3534 4.51323 12.8696 4.13923C12.6087 3.9348 12.3029 3.76808 11.9604 3.64354L11.8289 3.5958L12.7436 3.1249C14.3757 2.26607 16.0639 1.37767 18.3232 1.37767C20.0854 1.37767 21.4798 1.90819 22.8284 2.42139C23.9841 2.86032 25.1793 3.31422 26.4538 3.31422C27.3861 3.31422 28.2928 3.07494 29.2253 2.58265L29.267 2.56056L30.3298 3.72953L29.1874 4.97001L29.1477 4.95336C28.462 4.66481 27.7183 4.51851 26.9373 4.51851C23.8223 4.51851 20.4945 6.81428 18.459 10.3671L18.4191 10.4367L18.4119 10.4294L18.0146 11.127H23.4643L15.179 20.2477L15.0778 20.1818Z" fill="var(--fill-0, #B0F431)"/>
<path id="Vector_18" d="M20.7462 4.11361C20.2946 4.11361 19.9261 4.34726 19.9261 4.63342C19.9261 4.91957 20.2948 5.15325 20.7462 5.15325C21.1975 5.15325 21.5662 4.91974 21.5662 4.63342C21.5662 4.34709 21.1975 4.11361 20.7462 4.11361Z" fill="var(--fill-0, #0C0C09)"/>
<path id="Vector_19" d="M20.7462 3.62412C21.1991 3.62412 21.5662 3.39132 21.5662 3.10432C21.5662 2.8173 21.1991 2.58449 20.7462 2.58449C20.2933 2.58449 19.9261 2.8173 19.9261 3.10432C19.9261 3.39132 20.2933 3.62412 20.7462 3.62412Z" fill="var(--fill-0, #0C0C09)"/>
<path id="Vector_20" d="M16.9019 4.11361C16.4504 4.11361 16.0819 4.34726 16.0819 4.63342C16.0819 4.91957 16.4506 5.15325 16.9019 5.15325C17.3533 5.15325 17.7215 4.91974 17.7215 4.63342C17.7215 4.34709 17.3528 4.11361 16.9019 4.11361Z" fill="var(--fill-0, #0C0C09)"/>
<path id="Vector_21" d="M16.9019 2.58407C16.4504 2.58407 16.0819 2.81772 16.0819 3.10388C16.0819 3.39006 16.4506 3.62372 16.9019 3.62372C17.3533 3.62372 17.7215 3.39006 17.7215 3.10388C17.7215 2.81772 17.3528 2.58407 16.9019 2.58407Z" fill="var(--fill-0, #0C0C09)"/>
<path id="Vector_22" d="M22.8373 3.32277C22.3863 3.32277 22.0178 3.55625 22.0178 3.84258C22.0178 4.12891 22.3865 4.36239 22.8373 4.36239C23.2882 4.36239 23.6574 4.12874 23.6574 3.84258C23.6574 3.55643 23.2887 3.32277 22.8373 3.32277Z" fill="var(--fill-0, #0C0C09)"/>
<path id="Vector_23" d="M14.953 3.32277C14.5015 3.32277 14.1329 3.55625 14.1329 3.84258C14.1329 4.12891 14.5016 4.36239 14.953 4.36239C15.4044 4.36239 15.7731 4.12874 15.7731 3.84258C15.7731 3.55643 15.4044 3.32277 14.953 3.32277Z" fill="var(--fill-0, #0C0C09)"/>
<path id="Vector_24" d="M18.8954 3.32277C18.4438 3.32277 18.0753 3.55625 18.0753 3.84258C18.0753 4.12891 18.444 4.36239 18.8954 4.36239C19.3467 4.36239 19.7154 4.12874 19.7154 3.84258C19.7154 3.55643 19.3467 3.32277 18.8954 3.32277Z" fill="var(--fill-0, #0C0C09)"/>
<path id="Vector_25" d="M29.0438 6.0951L29.4274 6.29851L31.8124 3.72184L28.314 0C28.314 0 27.6669 0.881437 28.4495 1.7554C26.5236 2.65943 25.049 2.10189 23.206 1.40126C21.8292 0.881437 20.2718 0.286165 18.3236 0.286165C15.8186 0.286165 13.998 1.2354 12.2376 2.15457C10.6956 2.96071 9.23603 3.72167 7.44546 3.72167C3.58613 3.72184 1.69043 1.49166 1.05089 0.534946C0.877844 0.271211 0.516807 0.203408 0.253416 0.37674C-0.00980481 0.5499 -0.077563 0.911683 0.0954837 1.17525C1.63762 3.48819 4.3836 4.87448 7.44546 4.87448C8.13747 4.87448 8.77704 4.77663 9.38633 4.6184H9.40147C10.1914 4.41499 11.3272 4.31696 12.2072 4.99514C13.8777 6.28358 13.5914 9.61354 11.5454 12.5745L10.9208 13.471H16.8638L12.9072 22.3765C12.7717 22.6854 12.877 23.0394 13.1553 23.2203C13.2679 23.2956 13.396 23.3333 13.524 23.3333C13.712 23.3333 13.8927 23.2581 14.028 23.1073L25.9068 10.028H19.9186C22.3932 6.37397 26.2527 4.64864 29.0284 6.08764L29.0438 6.0951ZM18.3989 10.3293L17.9096 11.1881H23.3264L15.1339 20.2066L18.632 12.3335H13.0575C14.9304 9.06366 14.9155 5.64311 12.9072 4.09112C12.6284 3.87258 12.3129 3.70688 11.9815 3.58625C12.2449 3.45062 12.5085 3.31503 12.7719 3.17943C14.4042 2.32059 16.0969 1.43898 18.3235 1.43898C20.0614 1.43898 21.4605 1.96628 22.8069 2.47862C24.8306 3.24707 26.7416 3.96282 29.2542 2.63683L30.2473 3.72934L29.1716 4.89708C25.6809 3.42787 21.0392 5.74096 18.4063 10.3368L18.3989 10.3293Z" fill="var(--fill-0, #0C0C09)"/>
</g>
<defs>
<clipPath id="clip0_0_37">
<rect width="63.875" height="23.3333" fill="white"/>
</clipPath>
</defs>
</svg>
